<?xml version="1.0" encoding="utf-8"?>
<!-- Generator: Adobe Illustrator 17.1.0, SVG Export Plug-In . SVG Version: 6.00 Build 0)  -->
<!DOCTYPE svg PUBLIC "-//W3C//DTD SVG 1.1//EN" "http://www.w3.org/Graphics/SVG/1.1/DTD/svg11.dtd">
<svg version="1.1" id="Layer_1" xmlns="http://www.w3.org/2000/svg" xmlns:xlink="http://www.w3.org/1999/xlink" x="0px" y="0px"
	 viewBox="0 0 863.8 429.6" enable-background="new 0 0 863.8 429.6" xml:space="preserve">
<g>
	<path fill="#0996D5" d="M116.9,405.1C90,431.2,49.8,424,26.4,400.5C6.5,380.7-0.4,357.7,2.2,331.2c1.5-15.4,10.9-27.4,21.3-38.1
		c10.7-11,22.2-21.3,33.8-31.4c9.3-8,21-6.7,29.1,3.9c13.4,17.7,25.9,36.1,39.1,54.1c4.2,5.8,2.6,10.3-1.4,15
		c-2.6,3-6.2,3.8-9.2,5.8c-11.7-3.9-17.6-14-25.8-21.3c-7.8-7-14.2-15.6-22.7-21.6c-3.3,3.1-2.7,5.2-0.8,6.9
		c11.4,10.3,20.2,23.2,32.4,32.7c6.6,5.2,12.2,11.8,21.9,7.4c9.7-4.4,16.1-10.8,13.8-22.5c10.2-7.1,19.9-14,29.8-20.4
		c6.9-4.5,15.1-2.9,19.6,3c5.6,7.5,4.9,13.2-3.9,19.8c-18.1,13.5-36.9,26-57.6,35.2c-7.1,3.2-14.3,6.3-21.2,10
		c-8.2,4.4-12.8,12.6-11.3,19c1.9,8.3,11,15.7,20.2,16.3c1.4,0.1,2.7-0.5,4.1-0.5C114.1,404.4,114.9,404.7,116.9,405.1z"/>
	<path fill="#0F5E81" d="M761.6,63.6c12.7,0,23.8,0,35.4,0c3.5-8.7,1.2-17.6,1.6-26.2c0.4-7.5-0.3-15,0.3-22.4
		c0.7-9.3,3.9-12.7,12.7-13.8c13-1.7,26-1.4,39.1-0.1c7.9,0.8,11.6,5.3,12.5,12.6c0.5,3.7,0.5,7.4,0.5,11.2c0,48.1,0.1,96.2,0,144.3
		c0,21.3-2.9,24.2-24.2,24.3c-7.5,0-15,0.3-22.4-0.1c-14.2-0.8-18.1-4.8-18.3-19c-0.3-15.4,0-30.8-0.1-46.2c0-4.6,0.9-9.3-1.2-14.6
		c-11.2,0-22.7,0-34.7,0c-3.2,3.5-1.5,8.4-1.5,12.9c-0.2,16.3,0.1,32.7-0.1,49c-0.2,12.7-3.8,16.9-16.4,17.8
		c-10.2,0.7-20.6,0.6-30.8,0.2c-13.3-0.6-17-4.7-17.1-18.4c-0.2-31.8-0.1-63.5-0.1-95.3c0-20.1-0.1-40.2,0-60.2
		c0.1-15.1,2.4-17.6,17.9-18.8c10.2-0.8,20.5-0.8,30.7,0.4c12,1.4,15.4,4.6,15.7,16.8c0.4,12.6,0.1,25.2,0.1,37.8
		C761.3,57.8,761.5,60.1,761.6,63.6z M709.1,12.7c0,56.8,0,112.1,0,167.3c13.6,0,26.4,0,39.9,0c0-6.2,0-11.3,0-16.4
		c0-16.3-0.2-32.7,0.1-49c0.2-10.1,2.8-13.7,11.7-14.2c13-0.7,26.1-0.5,39.2,0c7,0.3,10.8,4.9,11.2,12c0.2,4.2,0.1,8.4,0.1,12.6
		c0,18.1,0,36.2,0,55c39.6,0.3,0,0,39.6,0.3c0-56.2,0-111.5,0-166.8c-13.6,0-26.3,0-39.6,0c0,16.5,0.2,31.9-0.1,47.3
		c-0.2,11.7-3.7,15.2-15,15.5c-10.7,0.3-21.5,0-32.2,0.1c-4.8,0-9.3-0.7-13.4-5.1c-3.7-18.4-1.6-27-2.3-57.9
		C709.1,12.7,748.1,13.3,709.1,12.7z"/>
	<path fill="#0F5E81" d="M339.7,342c-4.7,9-9.3,18-14.3,26.9c-9.1,16.1-31.4,16.1-40.7,0c-5.7-9.9-10.5-20.2-16.9-32.5
		c0,24.3,0,46.2,0,68.1c0,19-3.7,22.6-23,22.7c-6.5,0-13.1,0.2-19.6,0c-13.9-0.4-18.4-4.8-18.5-18.7c-0.2-23.3,0-46.7,0-70
		c0-28-0.1-56,0-84c0.1-16.1,3.8-19.9,19.5-20.2c8.4-0.2,16.8,0.1,25.2-0.1c8.7-0.2,15.3,3.2,20,10.5c11.3,17.6,22.6,35.1,34,52.8
		c10.9-17,22.1-34.2,33.1-51.5c4.9-7.7,11.4-12,20.8-11.7c8.9,0.2,17.7-0.2,26.6,0.2c12.5,0.5,16.6,4.6,16.7,17.3
		c0.2,29.4,0.1,58.8,0.1,88.2c0,22.9,0.1,45.7,0,68.6c-0.1,14.2-4.1,18.3-18.2,18.7c-7.9,0.2-15.9,0.2-23.8,0
		c-14.5-0.4-18.8-4.7-19-19.7c-0.2-17.7-0.1-35.5-0.1-53.2c0-4.1,0-8.3,0-12.4C341,341.8,340.4,341.9,339.7,342z M312.2,368
		c12-18.9,19.1-39.3,31.7-55.6c9.5,1.3,9.3,7.1,9.3,12.8c0,23.8-0.1,47.6,0.1,71.4c0,5.5-1.1,11.1,1.7,17.9c35.3-0.2,0,0,35.3-0.2
		c0-56.4,0-111.7,0-167.7c-8.5-1.8-16.5-0.2-24.2-1.2c-10.4-1.4-16.3,3.4-21.4,11.8c-9.4,15.5-19.5,30.6-29.4,45.9
		c-2.5,3.9-4.4,8.4-10.1,9c-5.7-0.9-7.9-5.7-10.7-10c-10-15.7-20-31.4-30.1-47.1c-2.5-3.9-4.9-8.7-10-9c-11.9-0.7-23.9-1.4-35.4,0.6
		c0,56.8,0,112.1,0,168c37.3-1.2,0,0,37.3-1.2c0-34.5,0-68,0-100.7c4.1-2.5,7.2-2.6,10.9-1.2c10.1,18.9,20.3,38,30.3,56.6
		C303.4,368,307.6,368,312.2,368z"/>
	<path fill="#0F5E81" d="M485.9,188.4c-17.4,7.7-34.7,9-52.3,3.6c-18.8-5.8-29.9-19.5-30.3-39.1c-0.6-33.1-0.4-66.3-0.1-99.4
		c0.1-11.8,4.1-15.3,16.5-15.7c8.9-0.3,17.7-0.3,26.6,0c13.6,0.4,17.3,4,17.5,17.8c0.2,25.7,0,51.3,0.1,77c0,4.6-0.7,9.3,1,13.6
		c6.2,5.1,12.2,4.3,18.2,0.5c3.4-6,3.2-12.6,3.2-19.1c0-23.8-0.1-47.6,0-71.4c0.1-15.4,2.8-18.2,17.7-18.5c9.3-0.2,18.7-0.3,28,0.1
		c9.8,0.5,13.7,4.2,13.8,13.8c0.2,42.5,0.2,85,0,127.4c-0.1,9.7-2.7,12.8-12.4,13.4C517.8,193.4,501.9,196.5,485.9,188.4z
		 M497.9,49.9c0,6.6,0,12.6,0,18.5c0,22.9,0.3,45.8-0.2,68.6c-0.4,16.7-8.7,24.4-24.2,24.1c-15.2-0.3-21.3-7.2-21.3-24.4
		c-0.1-24.3,0-48.5-0.1-72.8c0-4.6,1.2-9.4-2.3-14.1c-11-0.7-22.5-1.4-34.8,0.5c0,35.3-0.4,69.8,0.2,104.2
		c0.3,14.2,9.3,22.7,22.8,26.7c11.6,3.4,23.2,3.7,34.4-0.3c9.8-3.5,19.1-10.7,28.6,0.2c11-0.3,22,1.2,32.8-1
		c2.4-39.9,1.4-120-1.6-130C521.2,49.9,510.2,49.9,497.9,49.9z"/>
	<path fill="#0F5E81" d="M60.8,46.5c-15.6,0-29.5,0.1-43.4,0C3.3,46.3,0.5,43.3,0.1,29C-0.6,1.6,0.2,0.8,27.6,0.8
		c44.3,0,88.7,0,133,0c3.7,0,7.5-0.2,11.2,0.1c9.6,0.7,12.5,3.3,13,12.7c0.4,6.5,0.4,13.1,0.1,19.6c-0.5,10.4-3,13-13.7,13.2
		c-11.7,0.3-23.3,0-35,0.1c-3.2,0-6.5-0.9-9.9,1.2c-2,3.6-1,7.9-1,11.9c-0.1,37.8,0,75.6-0.1,113.4c0,16.4-3,19.3-19.8,19.6
		c-9.3,0.1-18.7,0.2-28-0.1c-13.1-0.4-16.5-3.9-16.6-17c-0.2-26.1-0.1-52.3-0.1-78.4C60.8,81,60.8,64.7,60.8,46.5z M173.1,35
		c0.1-8.4,1.1-15.2-0.6-21.7c-159.3,1.2,0,0-159.3,1.2c0,6.5,0,12.9,0,20.5c14.4,0,28.3-0.1,42.2,0c14.4,0.2,16.9,2.7,16.9,17.4
		c0.1,37.8,0,75.6,0.1,113.4c0,4.6-0.8,9.2,0.8,13.6c13.8,2.5,29.3,2.3,40.6-0.6c0-4.4,0-9,0-13.6c0-36.4,0-72.8,0-109.2
		c0-20.2,0.9-21,21.7-21.1C147.4,35,159.5,35,173.1,35z"/>
	<path fill="#0F5E81" d="M782,365.3c-1.2,11.8-0.2,14.1,8.6,17.5c11.8,4.5,23.9,3,35.9,1.2c5.5-0.8,10.8-2.8,16.3-3.7
		c9.7-1.7,14.2,1.7,15.5,11.1c0.1,0.5,0.1,0.9,0.1,1.4c0.5,29.3,0.4,28.5-25.3,33.4c-22.1,4.2-44.5,4-66.6-1.9
		c-28.1-7.5-43.2-26.6-43.6-55.7c-0.2-14-0.4-28,0.1-42c1-33.2,20.6-53.4,53.8-56.4c15.5-1.4,30.7-1.4,45.7,3.2
		c22.9,7,36.2,24.5,37.1,48.6c0.3,8.4,0.2,16.8,0.1,25.2c-0.2,13.1-3.3,16.6-16.5,17c-15.9,0.4-31.7,0-47.6,0.2
		C791,364.5,786.3,363.5,782,365.3z M848.1,352.2c0-11.6,0.6-21.4-0.1-31c-1.5-19.5-12.1-31.6-30.7-36.9
		c-14.7-4.2-29.8-4.4-44.4-1.6c-22.4,4.3-37.5,15.1-37.4,44.2c0,14.9-0.3,29.9,0.1,44.8c0.6,21.1,9.1,32.3,29.1,39.5
		c21.3,7.6,43.1,6.5,64.9,3.7c5.2-0.7,11.4-0.1,16.1-5c0.8-5.1,1-10.5-0.4-16.6c-2.2,0.2-4,0.1-5.7,0.5c-13.3,3.2-26.7,3.7-40.3,3
		c-9.7-0.5-18.5-3.3-24.9-10.9c-6.7-8.1-8.5-17.8-4.8-27.5c3.3-8.7,11.7-5.9,18.4-6C807.5,352,827,352.2,848.1,352.2z"/>
	<path fill="#0F5E81" d="M433.2,345.1c0-15.9,0.6-31.8-0.2-47.6c-1-19.2,13.5-37.4,38.1-37.5c22-0.1,43.9,0,65.9,0
		c9.3,0,18.7-0.3,28,0.1c22.5,1,36.5,15.2,36.7,37.5c0.3,31.8,0.3,63.5,0,95.3c-0.2,21.5-14.4,36.1-36,36.5
		c-32.2,0.5-64.5,0-96.7,0.2c-17.6,0.1-36.8-14.7-35.9-36.8C433.7,376.9,433.2,361,433.2,345.1z M516.7,417.1
		c15.9,0,31.8,0.2,47.6-0.1c17.1-0.3,25.7-8.8,25.9-26.1c0.3-30.8,0.3-61.6,0-92.4c-0.2-17.1-8.8-25.8-26-26
		c-31.3-0.4-62.6-0.4-93.8,0c-17.4,0.2-25.5,8.7-25.6,26.2c-0.2,30.8-0.2,61.6,0,92.4c0.1,17.4,8.3,25.6,25.7,26
		C485.9,417.4,501.3,417.1,516.7,417.1z"/>
	<path fill="#0F5E81" d="M560.8,116.2c0-13.5-0.2-24.7,1.4-35.9c2.3-16.6,10.5-28.4,25.6-35.7c10.3-4.9,21.2-6.8,32.3-8.1
		c16.3-2,32.6-1.9,48.7,1.3c11,2.2,14,5.8,14.3,17c0.1,5.1,0.3,10.3-0.1,15.4c-0.6,9.1-3.9,12.4-13.1,12.5c-6,0-12.1-0.9-18.1-1.5
		c-3.2-0.3-6.5-1.1-9.7-1.1c-16.1,0.1-20.7,4.7-20.8,20.8c-0.1,11.2-0.2,22.4,0.1,33.6c0.3,10.4,3.9,14.5,14.1,15.4
		c9.3,0.8,18.6,0.2,27.8-1.4c15.3-2.7,19.6,1.1,19.8,16.5c0,1.4,0,2.8,0,4.2c0,19.9-3.3,24.1-22.8,25.2c-18.6,1.1-37.3,1.8-55.7-2.4
		c-27.7-6.3-39.5-19.2-43.1-47.3C560.3,134.4,561.3,124.1,560.8,116.2z M670.6,50c-16.8-2.6-32.5-2.4-48.3-1.5
		c-8.9,0.5-17.4,2.1-25.8,5.4c-14.6,5.6-22.7,15.9-22.9,31.7c-0.3,19.6-0.1,39.1-0.1,58.7c0.1,17,8.5,28.2,24.4,33.4
		c21.7,7.1,43.9,7.5,66.2,4.2c2.5-0.4,5.8-0.2,7.4-3.8c-0.2-5.4,1.4-11.4-1.4-17.5c-6.2,0.3-12.2,0.8-18.2,0.9
		c-6.5,0.1-13.1,0.5-19.5-0.2c-14.2-1.6-22-9.7-22.4-23.8c-0.4-14.9-0.2-29.8,0-44.7c0.2-11.1,6.3-18,16.5-21.7
		c9.6-3.5,19.3-2.7,29-1.4c5,0.7,9.8,2.4,15.7,0.8C671.9,63.9,672.3,57.6,670.6,50z"/>
	<path fill="#0F5E81" d="M286.9,195.2c-16.3,0-32.7,0.2-49-0.1c-19.8-0.3-32.1-11.6-34.7-31.2c-0.5-3.7-0.9-7.4-0.9-11.1
		c-0.1-28-0.2-56,0-84.1c0.3-28.8,13.7-42,42.1-42.1c29-0.1,57.9-0.1,86.9,0c26.4,0.1,40.3,14.1,40.4,40.8c0.1,29.4,0.1,58.8,0,88.3
		c-0.1,25.8-13.9,39.3-39.9,39.5C316.8,195.3,301.9,195.2,286.9,195.2z M287.9,183.7c14.9,0,29.8,0.1,44.7,0
		c17.8-0.2,27.1-8.5,27.4-26.1c0.5-31.2,0.5-62.5,0-93.7c-0.3-16-9.5-25.3-25.5-25.6c-31.7-0.5-63.4-0.3-95.1-0.1
		c-14.6,0.1-25.3,11.6-25,25.9c0.7,31.2,0.1,62.5,0.3,93.7c0.1,17.4,8.4,25.7,25.7,25.9C256.2,183.9,272,183.7,287.9,183.7z"/>
	<path fill="#0F5E81" d="M674,276.5c10.2-6.2,20.9-7.4,31.6-6.8c10.3,0.5,13.2,3.8,13.7,13.7c0.3,7,0.3,14,0,21
		c-0.4,8.3-3.5,11.8-11.7,13c-4.1,0.6-8.4,0.2-12.6,0.5c-13.2,1-20.7,7.9-21.2,21.1c-0.7,20.5-0.5,41.1-0.6,61.6
		c-0.1,24.6-1.8,26.4-25.9,26.4c-5.6,0-11.2,0.3-16.8-0.1c-10.2-0.8-14-4.7-14.4-15.1c-0.4-9.3-0.1-18.7-0.1-28
		c0-30.8-0.1-61.6,0-92.4c0-16.9,3.5-20.4,20.6-20.4c9.7,0,19.6-1.5,29.2,1.2C668.5,272.9,670.8,274.7,674,276.5z M707.5,282.6
		c-15.7-4.3-27.1,4.4-38,8.8c-6.8-1-7.2-7.7-12.6-8.9c-9.1,1.1-19-1.8-28.3,1.9c-2.4,21.8-1.5,120,1.4,130.7c31-0.8,0,0,31-0.8
		c0-18.6-0.1-36.7,0-54.8c0.1-8.4-0.5-16.7,1.1-25.1c3.4-17,14-26.6,31.4-28.2c4.5-0.4,9.4,0.9,13.9-2.6
		C707.5,297,707.5,290.2,707.5,282.6z"/>
	<path fill="#0996D5" d="M109.9,285.4c-5.3-7.9-10.2-15.1-15.3-22.7c25.5-16.8,50.6-33.4,75.8-49.9c9-5.9,14.4-4.9,19.6,3.1
		c5,7.8,3.7,14.6-4.5,20.1c-21.9,14.5-43.9,28.9-65.9,43.3C116.9,281,114.1,282.7,109.9,285.4z"/>
	<path fill="#0996D5" d="M129.3,315.3c-5.5-8.2-10.1-15.2-15.3-23.1c15.1-10.1,29.9-20.4,45.1-30c8.3-5.2,15.2-3.8,19.5,2.5
		c5.3,7.9,3.8,14.6-5.2,20.8C158.9,295.4,144.4,305.1,129.3,315.3z"/>
	<path fill="#0996D5" d="M163.7,371.3c-16.4,9.7-33.4,16.5-50.1,24.1c-7.4,3.4-13.6,1.6-15.9-3.4c-2.7-6-0.3-11.6,6.7-15.6
		c13.2-7.5,27.2-13.1,41.1-19.2C159.9,351,164.6,354.3,163.7,371.3z"/>
	<path fill="#0F5E81" d="M771.7,334.4c-6.5-10.4-4.3-20.2,1.8-28.7c6.6-9.1,17-8.9,26.7-6.7c11.3,2.6,18.9,20.4,13.8,30.9
		c-1.5,3.1-4,5.3-7.6,5.3C794.9,335.2,783.3,336.3,771.7,334.4z M803.2,323.3c-2.6-12.1-4.7-14.2-12.9-13.6
		c-7.6,0.6-8.7,2.2-8.6,13.6C788.5,323.3,795.3,323.3,803.2,323.3z"/>
	<path fill="#0996D5" d="M500.7,303.1c0.5-0.7,1-1.5,1.5-2.3c13.4-21.8,34.5-20.8,55.6-18.3c13.9,1.7,21.3,10.7,21.5,24.9
		c0.3,24.8,0,49.5,0.1,74.3c0,5.7-0.7,11.1-5.9,15.9c-4.6-0.9-7.1-4.9-10.2-8c1.3-16.9-3-25.3-13.3-25.9
		c-7.8-0.5-15.3,6.4-15.9,14.5c-0.8,11.4,4.9,15.6,22,16.3c3.2,2.6,6.5,5.1,8.6,9.1c-3.5,3.7-8.1,3.8-12.6,3.8
		c-23.4,0-46.7,0.2-70.1-0.1c-18.1-0.2-26.4-8.7-26.6-26.7c-0.2-24.3,0.4-48.6-0.2-72.9c-0.4-16.9,11.2-25.1,25.1-25.6
		c8.4-0.3,16.8-0.1,25.9-0.1c-1.8,7.8-8.5,10.4-11.9,15.3c-16.1-0.7-23.8,4-24.2,14.5c-0.4,8.8,6.8,15.5,16.3,15.2
		C497.3,326.6,501.1,320.3,500.7,303.1z M498.3,359.9c-5.6,0-8.9-0.3-12.1,0.1c-8.2,1.1-13.5,7.3-13.3,15.2
		c0.2,7.9,7.6,15.2,15.5,15.1c7.3-0.1,15.5-6.5,14.7-13.9c-1-9.9,4.1-15.5,10.3-21.2c4.4-4.1,8.7-8.4,12.8-12.8
		c4.9-5.2,9.6-8.5,17.8-8.3c11.7,0.3,18.7-12,13.7-21.5c-3.5-6.6-10.5-9.9-17.5-8.3c-6.4,1.5-12.1,7-11.1,14.1
		c1.4,9.1-3.8,13.6-9,18.9C512.7,344.7,505.4,352.6,498.3,359.9z"/>
	<path fill="#0996D5" d="M484.6,304.7c4.7,0.5,7.5,2.5,7.9,6.9c0.4,4.6-2,7-6.4,7.1c-4.1,0.1-7.3-1.3-7.5-6.2
		C478.4,307.9,481.5,306.1,484.6,304.7z"/>
	<path fill="#0996D5" d="M556.3,379.4c-0.9,4.1-3.2,6.5-7.5,6.4c-4.6,0-6.6-2.6-6.4-6.9c0.2-4.1,2.7-7.1,6.8-6.8
		C553.1,372.5,555.4,375.6,556.3,379.4z"/>
	<path fill="#0996D5" d="M269.3,71.6c11.5-20.7,28.1-25.8,48.3-22.8c2.7,0.4,5.6,0,8.4,0.2c13.6,1,22.9,9.5,23.2,23.2
		c0.5,25.7,0.2,51.3,0.2,77c0,5.3-1.8,9.9-5,14.9c-5.2-0.4-7.3-5.2-10.5-7.3c-2-3.1-0.7-5.9-0.7-8.6c0.1-10.8-4.6-17-13.4-17.8
		c-8.4-0.7-15.3,5.4-15.8,14.1c-0.6,9.8,4.2,16.1,14.7,16.2c8.5,0.1,12.4,4.1,16.2,10.4c-4.7,2.2-8.9,1.6-13,1.6
		c-24.3,0.1-48.5,0.2-72.8,0c-14.1-0.1-21.3-6.4-23.9-20.2c-0.6-3.2-1.1-6.4-1.2-9.7c-0.1-21.5-0.4-43,0-64.4
		c0.4-21.5,8.7-29.4,30-29.5c7-0.1,14,0,21.9,0c-2.7,6.6-8,9.6-11.5,13.7c-21.7,0.5-24.9,8.4-24.3,18c0.5,7.9,8.9,14.1,16.9,13.2
		C267.4,92.6,271.9,83.9,269.3,71.6z M305,99.9c4.8,0,8.1,0.4,11.3-0.1c7.7-1.1,13.7-8.5,13-15.6c-0.7-7.4-7.5-13.9-14.9-14.4
		c-7.3-0.5-14.3,5.6-15.5,13.2c-0.6,4.1,1.5,8.4,0.6,10.1c-12.2,12.4-22.7,23-33.3,33.7c-0.7,0-1.6,0.1-2.5,0
		c-0.9-0.2-1.7-0.8-2.6-0.9c-9.7-0.8-17.1,4.7-18,13.2c-0.9,8.8,4.6,15.9,13,16.7c9.7,0.9,17.6-5.3,17.2-15.5
		c-0.3-6.5,2-10.4,6.2-14.5C288,117.3,296.4,108.6,305,99.9z"/>
	<path fill="#0996D5" d="M319.9,138.7c3.3-0.2,5.1,2.9,5.1,7c0,4.1-1.9,7.1-6.7,7c-4.5-0.2-7.1-2.9-7.1-6.9
		C311.2,141.7,313.8,138.9,319.9,138.7z"/>
	<path fill="#0996D5" d="M262.5,79.4c-0.9,4.1-3.4,6.4-7.7,6c-4.4-0.4-6.6-3.2-6.1-7.5c0.4-4.3,3.2-6.7,7.5-6.2
		C260.3,72.2,262.5,75,262.5,79.4z"/>
	<path fill="#0996D5" d="M551.2,319.4c-0.7,4-3,6.8-7.2,6.7c-4.1-0.1-6.8-2.8-6.7-7.1c0-4.5,2.8-6.8,7-6.7
		C548.6,312.4,550.9,315,551.2,319.4z"/>
	<path fill="#0996D5" d="M488.5,368c3.9,0.9,6.8,3.1,6.6,7.3c-0.1,4.3-3.1,6.8-7.2,6.6c-3.9-0.2-6.7-2.8-6.6-7.2
		C481.5,370.3,484.4,368.4,488.5,368z"/>
	<path fill="#0996D5" d="M256,133.5c5.2,1.1,7.6,3.7,9.3,7.6c-1.6,6.3-6.4,8.7-11.3,5.3C248.4,142.5,250.9,137.5,256,133.5z"/>
	<path fill="#0996D5" d="M321,85.4c-0.7,4-3.2,6.2-7.4,6.3c-4.4,0-6.7-2.3-6.5-6.8c0.2-4.3,2.7-7.2,6.7-6.8
		C317.6,78.4,320.4,81.1,321,85.4z"/>
</g>
</svg>
